# xmcd
#
# Track frame offsets:
#	150
#	20120
#	44785
#	64747
#
# Disc length: 1194 seconds
#
# Revision: 1
# Processed by: cddbd v1.5.1PL0 Copyright (c) Steve Scherf et al.
# Submitted via: CDex 1.50Beta5
#
DISCID=3804a804
DTITLE=SAYUMI - LOOKIN’ FOR LOVE
DYEAR=1993
DGENRE=
TTITLE0=SAYUMI/LOOKIN’ FOR LOVE
TTITLE1=SAYUMI/LET’S DO IT ONCE AGAIN
TTITLE2=LOOKIN’ FOR LOVE
TTITLE3=LETS’DO IT ONCE AGAIN
EXTD=
EXTT0=
EXTT1=
EXTT2=
EXTT3=
PLAYORDER=
